# xmcd
#
# Track frame offsets: 
#        150
#        7562
#        16547
#        26790
#        37090
#        45012
#        54702
#        69175
#        79552
#        90300
#        99752
#        110925
#        124777
#        134860
#        146062
#        156427
#        166632
#        177147
#        191045
#
# Disc length: 2658 seconds
#
# Revision: 6
# Processed by: cddbd v1.5.2PL0 Copyright (c) Steve Scherf et al.
# Submitted via: ExactAudioCopyFreeDBPlugin 1.0
#
DISCID=e80a6013
DTITLE=Hank Williams - The Complete Hank Williams [CD 06)
DYEAR=1998
DGENRE=Country
TTITLE0=You Caused It All by Telling Lies
TTITLE1=Faded Love and Winter Roses
TTITLE2=Please Don't Let Me Love You
TTITLE3=There's No Room in My Heart for the Blues
TTITLE4=I Wish I Had a Nickle
TTITLE5=The Waltz of the Wind
TTITLE6=At the First Fall of Snow
TTITLE7=Leave Me Alone with the Blues
TTITLE8=I'm Free at Last
TTITLE9=Blue Love (In My Heart)
TTITLE10=It Just Don't Matter Now
TTITLE11=Little Paper Boy
TTITLE12=Someday You'll Call My Name
TTITLE13=The Battle of Armageddon
TTITLE14=No One Will Ever Know
TTITLE15=With Tears in My Eyes
TTITLE16=Thank God
TTITLE17=Rock My Cradle Once Again
TTITLE18=Don't Do It, Darling
EXTD=
EXTT0=
EXTT1=
EXTT2=
EXTT3=
EXTT4=
EXTT5=
EXTT6=
EXTT7=
EXTT8=
EXTT9=
EXTT10=
EXTT11=
EXTT12=
EXTT13=
EXTT14=
EXTT15=
EXTT16=
EXTT17=
EXTT18=
PLAYORDER=
